%TF.GenerationSoftware,KiCad,Pcbnew,7.0.7*%
%TF.CreationDate,2023-12-23T12:05:02-04:00*%
%TF.ProjectId,teclado 4x4 i2c,7465636c-6164-46f2-9034-783420693263,rev?*%
%TF.SameCoordinates,Original*%
%TF.FileFunction,Soldermask,Bot*%
%TF.FilePolarity,Negative*%
%FSLAX46Y46*%
G04 Gerber Fmt 4.6, Leading zero omitted, Abs format (unit mm)*
G04 Created by KiCad (PCBNEW 7.0.7) date 2023-12-23 12:05:02*
%MOMM*%
%LPD*%
G01*
G04 APERTURE LIST*
G04 Aperture macros list*
%AMRoundRect*
0 Rectangle with rounded corners*
0 $1 Rounding radius*
0 $2 $3 $4 $5 $6 $7 $8 $9 X,Y pos of 4 corners*
0 Add a 4 corners polygon primitive as box body*
4,1,4,$2,$3,$4,$5,$6,$7,$8,$9,$2,$3,0*
0 Add four circle primitives for the rounded corners*
1,1,$1+$1,$2,$3*
1,1,$1+$1,$4,$5*
1,1,$1+$1,$6,$7*
1,1,$1+$1,$8,$9*
0 Add four rect primitives between the rounded corners*
20,1,$1+$1,$2,$3,$4,$5,0*
20,1,$1+$1,$4,$5,$6,$7,0*
20,1,$1+$1,$6,$7,$8,$9,0*
20,1,$1+$1,$8,$9,$2,$3,0*%
%AMFreePoly0*
4,1,19,0.500000,-0.750000,0.000000,-0.750000,0.000000,-0.744911,-0.071157,-0.744911,-0.207708,-0.704816,-0.327430,-0.627875,-0.420627,-0.520320,-0.479746,-0.390866,-0.500000,-0.250000,-0.500000,0.250000,-0.479746,0.390866,-0.420627,0.520320,-0.327430,0.627875,-0.207708,0.704816,-0.071157,0.744911,0.000000,0.744911,0.000000,0.750000,0.500000,0.750000,0.500000,-0.750000,0.500000,-0.750000,
$1*%
%AMFreePoly1*
4,1,19,0.000000,0.744911,0.071157,0.744911,0.207708,0.704816,0.327430,0.627875,0.420627,0.520320,0.479746,0.390866,0.500000,0.250000,0.500000,-0.250000,0.479746,-0.390866,0.420627,-0.520320,0.327430,-0.627875,0.207708,-0.704816,0.071157,-0.744911,0.000000,-0.744911,0.000000,-0.750000,-0.500000,-0.750000,-0.500000,0.750000,0.000000,0.750000,0.000000,0.744911,0.000000,0.744911,
$1*%
G04 Aperture macros list end*
%ADD10C,1.500000*%
%ADD11RoundRect,0.250000X0.600000X0.725000X-0.600000X0.725000X-0.600000X-0.725000X0.600000X-0.725000X0*%
%ADD12O,1.700000X1.950000*%
%ADD13RoundRect,0.250000X-0.600000X-0.725000X0.600000X-0.725000X0.600000X0.725000X-0.600000X0.725000X0*%
%ADD14C,2.000000*%
%ADD15RoundRect,0.150000X-0.875000X-0.150000X0.875000X-0.150000X0.875000X0.150000X-0.875000X0.150000X0*%
%ADD16RoundRect,0.135000X-0.135000X-0.185000X0.135000X-0.185000X0.135000X0.185000X-0.135000X0.185000X0*%
%ADD17RoundRect,0.135000X-0.185000X0.135000X-0.185000X-0.135000X0.185000X-0.135000X0.185000X0.135000X0*%
%ADD18RoundRect,0.150000X0.587500X0.150000X-0.587500X0.150000X-0.587500X-0.150000X0.587500X-0.150000X0*%
%ADD19FreePoly0,0.000000*%
%ADD20FreePoly1,0.000000*%
%ADD21R,1.700000X1.700000*%
%ADD22O,1.700000X1.700000*%
%ADD23C,5.000000*%
%ADD24RoundRect,0.225000X0.225000X0.250000X-0.225000X0.250000X-0.225000X-0.250000X0.225000X-0.250000X0*%
G04 APERTURE END LIST*
D10*
%TO.C,TP8*%
X163000000Y-137000000D03*
%TD*%
%TO.C,TP7*%
X147000000Y-137000000D03*
%TD*%
%TO.C,TP6*%
X131000000Y-137000000D03*
%TD*%
%TO.C,TP5*%
X115000000Y-137000000D03*
%TD*%
%TO.C,TP4*%
X101000000Y-130000000D03*
%TD*%
%TO.C,TP3*%
X101000000Y-113000000D03*
%TD*%
%TO.C,TP2*%
X101000000Y-97000000D03*
%TD*%
%TO.C,TP1*%
X101000000Y-79000000D03*
%TD*%
D11*
%TO.C,J5*%
X139000000Y-64000000D03*
D12*
X136500000Y-64000000D03*
X134000000Y-64000000D03*
X131500000Y-64000000D03*
%TD*%
D13*
%TO.C,J3*%
X113000000Y-64000000D03*
D12*
X115500000Y-64000000D03*
X118000000Y-64000000D03*
X120500000Y-64000000D03*
%TD*%
D14*
%TO.C,SW16*%
X164050000Y-127950000D03*
X157550000Y-127950000D03*
X157550000Y-132450000D03*
X164050000Y-132450000D03*
%TD*%
%TO.C,SW15*%
X164050000Y-116650000D03*
X157550000Y-116650000D03*
X157550000Y-112150000D03*
X164050000Y-112150000D03*
%TD*%
%TO.C,SW14*%
X164050000Y-100850000D03*
X157550000Y-100850000D03*
X157550000Y-96350000D03*
X164050000Y-96350000D03*
%TD*%
%TO.C,SW13*%
X164050000Y-85050000D03*
X157550000Y-85050000D03*
X157550000Y-80550000D03*
X164050000Y-80550000D03*
%TD*%
%TO.C,SW12*%
X147850000Y-127950000D03*
X141350000Y-127950000D03*
X141350000Y-132450000D03*
X147850000Y-132450000D03*
%TD*%
%TO.C,SW11*%
X131650000Y-127750000D03*
X125150000Y-127750000D03*
X125150000Y-132250000D03*
X131650000Y-132250000D03*
%TD*%
%TO.C,SW10*%
X115450000Y-127750000D03*
X108950000Y-127750000D03*
X108950000Y-132250000D03*
X115450000Y-132250000D03*
%TD*%
%TO.C,SW9*%
X147850000Y-116650000D03*
X141350000Y-116650000D03*
X141350000Y-112150000D03*
X147850000Y-112150000D03*
%TD*%
%TO.C,SW8*%
X131650000Y-116250000D03*
X125150000Y-116250000D03*
X125150000Y-111750000D03*
X131650000Y-111750000D03*
%TD*%
%TO.C,SW7*%
X115450000Y-116250000D03*
X108950000Y-116250000D03*
X108950000Y-111750000D03*
X115450000Y-111750000D03*
%TD*%
%TO.C,SW6*%
X147850000Y-100850000D03*
X141350000Y-100850000D03*
X141350000Y-96350000D03*
X147850000Y-96350000D03*
%TD*%
%TO.C,SW5*%
X131650000Y-100250000D03*
X125150000Y-100250000D03*
X125150000Y-95750000D03*
X131650000Y-95750000D03*
%TD*%
%TO.C,SW4*%
X115450000Y-100250000D03*
X108950000Y-100250000D03*
X108950000Y-95750000D03*
X115450000Y-95750000D03*
%TD*%
%TO.C,SW3*%
X147850000Y-85050000D03*
X141350000Y-85050000D03*
X141350000Y-80550000D03*
X147850000Y-80550000D03*
%TD*%
%TO.C,SW2*%
X131650000Y-84250000D03*
X125150000Y-84250000D03*
X125150000Y-79750000D03*
X131650000Y-79750000D03*
%TD*%
%TO.C,SW1*%
X115450000Y-84250000D03*
X108950000Y-84250000D03*
X108950000Y-79750000D03*
X115450000Y-79750000D03*
%TD*%
D15*
%TO.C,U1*%
X160700000Y-74000000D03*
X160700000Y-72730000D03*
X160700000Y-71460000D03*
X160700000Y-70190000D03*
X160700000Y-68920000D03*
X160700000Y-67650000D03*
X160700000Y-66380000D03*
X160700000Y-65110000D03*
X170000000Y-65110000D03*
X170000000Y-66380000D03*
X170000000Y-67650000D03*
X170000000Y-68920000D03*
X170000000Y-70190000D03*
X170000000Y-71460000D03*
X170000000Y-72730000D03*
X170000000Y-74000000D03*
%TD*%
D16*
%TO.C,R7*%
X155586190Y-68010000D03*
X156606190Y-68010000D03*
%TD*%
%TO.C,R6*%
X155586190Y-70000000D03*
X156606190Y-70000000D03*
%TD*%
%TO.C,R5*%
X155586190Y-71990000D03*
X156606190Y-71990000D03*
%TD*%
D17*
%TO.C,R4*%
X158000000Y-77000000D03*
X158000000Y-78020000D03*
%TD*%
%TO.C,R3*%
X156010000Y-77000000D03*
X156010000Y-78020000D03*
%TD*%
%TO.C,R2*%
X154020000Y-77000000D03*
X154020000Y-78020000D03*
%TD*%
%TO.C,R1*%
X152030000Y-77000000D03*
X152030000Y-78020000D03*
%TD*%
D18*
%TO.C,Q2*%
X171875000Y-83050000D03*
X171875000Y-84950000D03*
X170000000Y-84000000D03*
%TD*%
%TO.C,Q1*%
X171875000Y-78600000D03*
X171875000Y-80500000D03*
X170000000Y-79550000D03*
%TD*%
D19*
%TO.C,JP3*%
X152186190Y-74240000D03*
D20*
X153486190Y-74240000D03*
%TD*%
D19*
%TO.C,JP2*%
X152036190Y-70990000D03*
D20*
X153336190Y-70990000D03*
%TD*%
D19*
%TO.C,JP1*%
X151336190Y-67240000D03*
D20*
X152636190Y-67240000D03*
%TD*%
D21*
%TO.C,J4*%
X153180000Y-62000000D03*
D22*
X155720000Y-62000000D03*
X158260000Y-62000000D03*
X160800000Y-62000000D03*
%TD*%
D23*
%TO.C,H4*%
X91000000Y-143000000D03*
%TD*%
%TO.C,H3*%
X182000000Y-143000000D03*
%TD*%
%TO.C,H2*%
X91000000Y-68000000D03*
%TD*%
%TO.C,H1*%
X182000000Y-68000000D03*
%TD*%
D24*
%TO.C,C1*%
X172152500Y-87480000D03*
X170602500Y-87480000D03*
%TD*%
M02*
