M48
; DRILL file {KiCad 7.0.7} date Sat Dec 23 12:05:00 2023
; FORMAT={-:-/ absolute / inch / decimal}
; #@! TF.CreationDate,2023-12-23T12:05:00-04:00
; #@! TF.GenerationSoftware,Kicad,Pcbnew,7.0.7
; #@! TF.FileFunction,Plated,1,2,PTH
FMAT,2
INCH
; #@! TA.AperFunction,Plated,PTH,ComponentDrill
T1C0.0374
; #@! TA.AperFunction,Plated,PTH,ComponentDrill
T2C0.0394
; #@! TA.AperFunction,Plated,PTH,ComponentDrill
T3C0.0433
; #@! TA.AperFunction,Plated,PTH,ComponentDrill
T4C0.0984
%
G90
G05
T1
X4.4488Y-2.5197
X4.5472Y-2.5197
X4.6457Y-2.5197
X4.7441Y-2.5197
X5.1772Y-2.5197
X5.2756Y-2.5197
X5.374Y-2.5197
X5.4724Y-2.5197
T2
X6.0307Y-2.4409
X6.1307Y-2.4409
X6.2307Y-2.4409
X6.3307Y-2.4409
T3
X4.2894Y-3.1398
X4.2894Y-3.3169
X4.2894Y-3.7697
X4.2894Y-3.9469
X4.2894Y-4.3996
X4.2894Y-4.5768
X4.2894Y-5.0295
X4.2894Y-5.2067
X4.5453Y-3.1398
X4.5453Y-3.3169
X4.5453Y-3.7697
X4.5453Y-3.9469
X4.5453Y-4.3996
X4.5453Y-4.5768
X4.5453Y-5.0295
X4.5453Y-5.2067
X4.9272Y-3.1398
X4.9272Y-3.3169
X4.9272Y-3.7697
X4.9272Y-3.9469
X4.9272Y-4.3996
X4.9272Y-4.5768
X4.9272Y-5.0295
X4.9272Y-5.2067
X5.1831Y-3.1398
X5.1831Y-3.3169
X5.1831Y-3.7697
X5.1831Y-3.9469
X5.1831Y-4.3996
X5.1831Y-4.5768
X5.1831Y-5.0295
X5.1831Y-5.2067
X5.565Y-3.1713
X5.565Y-3.3484
X5.565Y-3.7933
X5.565Y-3.9705
X5.565Y-4.4154
X5.565Y-4.5925
X5.565Y-5.0374
X5.565Y-5.2146
X5.8209Y-3.1713
X5.8209Y-3.3484
X5.8209Y-3.7933
X5.8209Y-3.9705
X5.8209Y-4.4154
X5.8209Y-4.5925
X5.8209Y-5.0374
X5.8209Y-5.2146
X6.2028Y-3.1713
X6.2028Y-3.3484
X6.2028Y-3.7933
X6.2028Y-3.9705
X6.2028Y-4.4154
X6.2028Y-4.5925
X6.2028Y-5.0374
X6.2028Y-5.2146
X6.4587Y-3.1713
X6.4587Y-3.3484
X6.4587Y-3.7933
X6.4587Y-3.9705
X6.4587Y-4.4154
X6.4587Y-4.5925
X6.4587Y-5.0374
X6.4587Y-5.2146
T4
X3.5827Y-2.6772
X3.5827Y-5.6299
X7.1654Y-2.6772
X7.1654Y-5.6299
T0
M30
