%TF.GenerationSoftware,KiCad,Pcbnew,7.0.7*%
%TF.CreationDate,2023-12-23T12:05:02-04:00*%
%TF.ProjectId,teclado 4x4 i2c,7465636c-6164-46f2-9034-783420693263,rev?*%
%TF.SameCoordinates,Original*%
%TF.FileFunction,Legend,Bot*%
%TF.FilePolarity,Positive*%
%FSLAX46Y46*%
G04 Gerber Fmt 4.6, Leading zero omitted, Abs format (unit mm)*
G04 Created by KiCad (PCBNEW 7.0.7) date 2023-12-23 12:05:02*
%MOMM*%
%LPD*%
G01*
G04 APERTURE LIST*
%ADD10C,0.150000*%
%ADD11C,0.120000*%
G04 APERTURE END LIST*
D10*
X164261904Y-134806819D02*
X163690476Y-134806819D01*
X163976190Y-135806819D02*
X163976190Y-134806819D01*
X163357142Y-135806819D02*
X163357142Y-134806819D01*
X163357142Y-134806819D02*
X162976190Y-134806819D01*
X162976190Y-134806819D02*
X162880952Y-134854438D01*
X162880952Y-134854438D02*
X162833333Y-134902057D01*
X162833333Y-134902057D02*
X162785714Y-134997295D01*
X162785714Y-134997295D02*
X162785714Y-135140152D01*
X162785714Y-135140152D02*
X162833333Y-135235390D01*
X162833333Y-135235390D02*
X162880952Y-135283009D01*
X162880952Y-135283009D02*
X162976190Y-135330628D01*
X162976190Y-135330628D02*
X163357142Y-135330628D01*
X162214285Y-135235390D02*
X162309523Y-135187771D01*
X162309523Y-135187771D02*
X162357142Y-135140152D01*
X162357142Y-135140152D02*
X162404761Y-135044914D01*
X162404761Y-135044914D02*
X162404761Y-134997295D01*
X162404761Y-134997295D02*
X162357142Y-134902057D01*
X162357142Y-134902057D02*
X162309523Y-134854438D01*
X162309523Y-134854438D02*
X162214285Y-134806819D01*
X162214285Y-134806819D02*
X162023809Y-134806819D01*
X162023809Y-134806819D02*
X161928571Y-134854438D01*
X161928571Y-134854438D02*
X161880952Y-134902057D01*
X161880952Y-134902057D02*
X161833333Y-134997295D01*
X161833333Y-134997295D02*
X161833333Y-135044914D01*
X161833333Y-135044914D02*
X161880952Y-135140152D01*
X161880952Y-135140152D02*
X161928571Y-135187771D01*
X161928571Y-135187771D02*
X162023809Y-135235390D01*
X162023809Y-135235390D02*
X162214285Y-135235390D01*
X162214285Y-135235390D02*
X162309523Y-135283009D01*
X162309523Y-135283009D02*
X162357142Y-135330628D01*
X162357142Y-135330628D02*
X162404761Y-135425866D01*
X162404761Y-135425866D02*
X162404761Y-135616342D01*
X162404761Y-135616342D02*
X162357142Y-135711580D01*
X162357142Y-135711580D02*
X162309523Y-135759200D01*
X162309523Y-135759200D02*
X162214285Y-135806819D01*
X162214285Y-135806819D02*
X162023809Y-135806819D01*
X162023809Y-135806819D02*
X161928571Y-135759200D01*
X161928571Y-135759200D02*
X161880952Y-135711580D01*
X161880952Y-135711580D02*
X161833333Y-135616342D01*
X161833333Y-135616342D02*
X161833333Y-135425866D01*
X161833333Y-135425866D02*
X161880952Y-135330628D01*
X161880952Y-135330628D02*
X161928571Y-135283009D01*
X161928571Y-135283009D02*
X162023809Y-135235390D01*
X148261904Y-134806819D02*
X147690476Y-134806819D01*
X147976190Y-135806819D02*
X147976190Y-134806819D01*
X147357142Y-135806819D02*
X147357142Y-134806819D01*
X147357142Y-134806819D02*
X146976190Y-134806819D01*
X146976190Y-134806819D02*
X146880952Y-134854438D01*
X146880952Y-134854438D02*
X146833333Y-134902057D01*
X146833333Y-134902057D02*
X146785714Y-134997295D01*
X146785714Y-134997295D02*
X146785714Y-135140152D01*
X146785714Y-135140152D02*
X146833333Y-135235390D01*
X146833333Y-135235390D02*
X146880952Y-135283009D01*
X146880952Y-135283009D02*
X146976190Y-135330628D01*
X146976190Y-135330628D02*
X147357142Y-135330628D01*
X146452380Y-134806819D02*
X145785714Y-134806819D01*
X145785714Y-134806819D02*
X146214285Y-135806819D01*
X132261904Y-134806819D02*
X131690476Y-134806819D01*
X131976190Y-135806819D02*
X131976190Y-134806819D01*
X131357142Y-135806819D02*
X131357142Y-134806819D01*
X131357142Y-134806819D02*
X130976190Y-134806819D01*
X130976190Y-134806819D02*
X130880952Y-134854438D01*
X130880952Y-134854438D02*
X130833333Y-134902057D01*
X130833333Y-134902057D02*
X130785714Y-134997295D01*
X130785714Y-134997295D02*
X130785714Y-135140152D01*
X130785714Y-135140152D02*
X130833333Y-135235390D01*
X130833333Y-135235390D02*
X130880952Y-135283009D01*
X130880952Y-135283009D02*
X130976190Y-135330628D01*
X130976190Y-135330628D02*
X131357142Y-135330628D01*
X129928571Y-134806819D02*
X130119047Y-134806819D01*
X130119047Y-134806819D02*
X130214285Y-134854438D01*
X130214285Y-134854438D02*
X130261904Y-134902057D01*
X130261904Y-134902057D02*
X130357142Y-135044914D01*
X130357142Y-135044914D02*
X130404761Y-135235390D01*
X130404761Y-135235390D02*
X130404761Y-135616342D01*
X130404761Y-135616342D02*
X130357142Y-135711580D01*
X130357142Y-135711580D02*
X130309523Y-135759200D01*
X130309523Y-135759200D02*
X130214285Y-135806819D01*
X130214285Y-135806819D02*
X130023809Y-135806819D01*
X130023809Y-135806819D02*
X129928571Y-135759200D01*
X129928571Y-135759200D02*
X129880952Y-135711580D01*
X129880952Y-135711580D02*
X129833333Y-135616342D01*
X129833333Y-135616342D02*
X129833333Y-135378247D01*
X129833333Y-135378247D02*
X129880952Y-135283009D01*
X129880952Y-135283009D02*
X129928571Y-135235390D01*
X129928571Y-135235390D02*
X130023809Y-135187771D01*
X130023809Y-135187771D02*
X130214285Y-135187771D01*
X130214285Y-135187771D02*
X130309523Y-135235390D01*
X130309523Y-135235390D02*
X130357142Y-135283009D01*
X130357142Y-135283009D02*
X130404761Y-135378247D01*
X116261904Y-134806819D02*
X115690476Y-134806819D01*
X115976190Y-135806819D02*
X115976190Y-134806819D01*
X115357142Y-135806819D02*
X115357142Y-134806819D01*
X115357142Y-134806819D02*
X114976190Y-134806819D01*
X114976190Y-134806819D02*
X114880952Y-134854438D01*
X114880952Y-134854438D02*
X114833333Y-134902057D01*
X114833333Y-134902057D02*
X114785714Y-134997295D01*
X114785714Y-134997295D02*
X114785714Y-135140152D01*
X114785714Y-135140152D02*
X114833333Y-135235390D01*
X114833333Y-135235390D02*
X114880952Y-135283009D01*
X114880952Y-135283009D02*
X114976190Y-135330628D01*
X114976190Y-135330628D02*
X115357142Y-135330628D01*
X113880952Y-134806819D02*
X114357142Y-134806819D01*
X114357142Y-134806819D02*
X114404761Y-135283009D01*
X114404761Y-135283009D02*
X114357142Y-135235390D01*
X114357142Y-135235390D02*
X114261904Y-135187771D01*
X114261904Y-135187771D02*
X114023809Y-135187771D01*
X114023809Y-135187771D02*
X113928571Y-135235390D01*
X113928571Y-135235390D02*
X113880952Y-135283009D01*
X113880952Y-135283009D02*
X113833333Y-135378247D01*
X113833333Y-135378247D02*
X113833333Y-135616342D01*
X113833333Y-135616342D02*
X113880952Y-135711580D01*
X113880952Y-135711580D02*
X113928571Y-135759200D01*
X113928571Y-135759200D02*
X114023809Y-135806819D01*
X114023809Y-135806819D02*
X114261904Y-135806819D01*
X114261904Y-135806819D02*
X114357142Y-135759200D01*
X114357142Y-135759200D02*
X114404761Y-135711580D01*
X102261904Y-127806819D02*
X101690476Y-127806819D01*
X101976190Y-128806819D02*
X101976190Y-127806819D01*
X101357142Y-128806819D02*
X101357142Y-127806819D01*
X101357142Y-127806819D02*
X100976190Y-127806819D01*
X100976190Y-127806819D02*
X100880952Y-127854438D01*
X100880952Y-127854438D02*
X100833333Y-127902057D01*
X100833333Y-127902057D02*
X100785714Y-127997295D01*
X100785714Y-127997295D02*
X100785714Y-128140152D01*
X100785714Y-128140152D02*
X100833333Y-128235390D01*
X100833333Y-128235390D02*
X100880952Y-128283009D01*
X100880952Y-128283009D02*
X100976190Y-128330628D01*
X100976190Y-128330628D02*
X101357142Y-128330628D01*
X99928571Y-128140152D02*
X99928571Y-128806819D01*
X100166666Y-127759200D02*
X100404761Y-128473485D01*
X100404761Y-128473485D02*
X99785714Y-128473485D01*
X102261904Y-110806819D02*
X101690476Y-110806819D01*
X101976190Y-111806819D02*
X101976190Y-110806819D01*
X101357142Y-111806819D02*
X101357142Y-110806819D01*
X101357142Y-110806819D02*
X100976190Y-110806819D01*
X100976190Y-110806819D02*
X100880952Y-110854438D01*
X100880952Y-110854438D02*
X100833333Y-110902057D01*
X100833333Y-110902057D02*
X100785714Y-110997295D01*
X100785714Y-110997295D02*
X100785714Y-111140152D01*
X100785714Y-111140152D02*
X100833333Y-111235390D01*
X100833333Y-111235390D02*
X100880952Y-111283009D01*
X100880952Y-111283009D02*
X100976190Y-111330628D01*
X100976190Y-111330628D02*
X101357142Y-111330628D01*
X100452380Y-110806819D02*
X99833333Y-110806819D01*
X99833333Y-110806819D02*
X100166666Y-111187771D01*
X100166666Y-111187771D02*
X100023809Y-111187771D01*
X100023809Y-111187771D02*
X99928571Y-111235390D01*
X99928571Y-111235390D02*
X99880952Y-111283009D01*
X99880952Y-111283009D02*
X99833333Y-111378247D01*
X99833333Y-111378247D02*
X99833333Y-111616342D01*
X99833333Y-111616342D02*
X99880952Y-111711580D01*
X99880952Y-111711580D02*
X99928571Y-111759200D01*
X99928571Y-111759200D02*
X100023809Y-111806819D01*
X100023809Y-111806819D02*
X100309523Y-111806819D01*
X100309523Y-111806819D02*
X100404761Y-111759200D01*
X100404761Y-111759200D02*
X100452380Y-111711580D01*
X102261904Y-94806819D02*
X101690476Y-94806819D01*
X101976190Y-95806819D02*
X101976190Y-94806819D01*
X101357142Y-95806819D02*
X101357142Y-94806819D01*
X101357142Y-94806819D02*
X100976190Y-94806819D01*
X100976190Y-94806819D02*
X100880952Y-94854438D01*
X100880952Y-94854438D02*
X100833333Y-94902057D01*
X100833333Y-94902057D02*
X100785714Y-94997295D01*
X100785714Y-94997295D02*
X100785714Y-95140152D01*
X100785714Y-95140152D02*
X100833333Y-95235390D01*
X100833333Y-95235390D02*
X100880952Y-95283009D01*
X100880952Y-95283009D02*
X100976190Y-95330628D01*
X100976190Y-95330628D02*
X101357142Y-95330628D01*
X100404761Y-94902057D02*
X100357142Y-94854438D01*
X100357142Y-94854438D02*
X100261904Y-94806819D01*
X100261904Y-94806819D02*
X100023809Y-94806819D01*
X100023809Y-94806819D02*
X99928571Y-94854438D01*
X99928571Y-94854438D02*
X99880952Y-94902057D01*
X99880952Y-94902057D02*
X99833333Y-94997295D01*
X99833333Y-94997295D02*
X99833333Y-95092533D01*
X99833333Y-95092533D02*
X99880952Y-95235390D01*
X99880952Y-95235390D02*
X100452380Y-95806819D01*
X100452380Y-95806819D02*
X99833333Y-95806819D01*
X102261904Y-76806819D02*
X101690476Y-76806819D01*
X101976190Y-77806819D02*
X101976190Y-76806819D01*
X101357142Y-77806819D02*
X101357142Y-76806819D01*
X101357142Y-76806819D02*
X100976190Y-76806819D01*
X100976190Y-76806819D02*
X100880952Y-76854438D01*
X100880952Y-76854438D02*
X100833333Y-76902057D01*
X100833333Y-76902057D02*
X100785714Y-76997295D01*
X100785714Y-76997295D02*
X100785714Y-77140152D01*
X100785714Y-77140152D02*
X100833333Y-77235390D01*
X100833333Y-77235390D02*
X100880952Y-77283009D01*
X100880952Y-77283009D02*
X100976190Y-77330628D01*
X100976190Y-77330628D02*
X101357142Y-77330628D01*
X99833333Y-77806819D02*
X100404761Y-77806819D01*
X100119047Y-77806819D02*
X100119047Y-76806819D01*
X100119047Y-76806819D02*
X100214285Y-76949676D01*
X100214285Y-76949676D02*
X100309523Y-77044914D01*
X100309523Y-77044914D02*
X100404761Y-77092533D01*
X135583333Y-60654819D02*
X135583333Y-61369104D01*
X135583333Y-61369104D02*
X135630952Y-61511961D01*
X135630952Y-61511961D02*
X135726190Y-61607200D01*
X135726190Y-61607200D02*
X135869047Y-61654819D01*
X135869047Y-61654819D02*
X135964285Y-61654819D01*
X134630952Y-60654819D02*
X135107142Y-60654819D01*
X135107142Y-60654819D02*
X135154761Y-61131009D01*
X135154761Y-61131009D02*
X135107142Y-61083390D01*
X135107142Y-61083390D02*
X135011904Y-61035771D01*
X135011904Y-61035771D02*
X134773809Y-61035771D01*
X134773809Y-61035771D02*
X134678571Y-61083390D01*
X134678571Y-61083390D02*
X134630952Y-61131009D01*
X134630952Y-61131009D02*
X134583333Y-61226247D01*
X134583333Y-61226247D02*
X134583333Y-61464342D01*
X134583333Y-61464342D02*
X134630952Y-61559580D01*
X134630952Y-61559580D02*
X134678571Y-61607200D01*
X134678571Y-61607200D02*
X134773809Y-61654819D01*
X134773809Y-61654819D02*
X135011904Y-61654819D01*
X135011904Y-61654819D02*
X135107142Y-61607200D01*
X135107142Y-61607200D02*
X135154761Y-61559580D01*
X117083333Y-66254819D02*
X117083333Y-66969104D01*
X117083333Y-66969104D02*
X117130952Y-67111961D01*
X117130952Y-67111961D02*
X117226190Y-67207200D01*
X117226190Y-67207200D02*
X117369047Y-67254819D01*
X117369047Y-67254819D02*
X117464285Y-67254819D01*
X116702380Y-66254819D02*
X116083333Y-66254819D01*
X116083333Y-66254819D02*
X116416666Y-66635771D01*
X116416666Y-66635771D02*
X116273809Y-66635771D01*
X116273809Y-66635771D02*
X116178571Y-66683390D01*
X116178571Y-66683390D02*
X116130952Y-66731009D01*
X116130952Y-66731009D02*
X116083333Y-66826247D01*
X116083333Y-66826247D02*
X116083333Y-67064342D01*
X116083333Y-67064342D02*
X116130952Y-67159580D01*
X116130952Y-67159580D02*
X116178571Y-67207200D01*
X116178571Y-67207200D02*
X116273809Y-67254819D01*
X116273809Y-67254819D02*
X116559523Y-67254819D01*
X116559523Y-67254819D02*
X116654761Y-67207200D01*
X116654761Y-67207200D02*
X116702380Y-67159580D01*
X166111904Y-75109819D02*
X166111904Y-75919342D01*
X166111904Y-75919342D02*
X166064285Y-76014580D01*
X166064285Y-76014580D02*
X166016666Y-76062200D01*
X166016666Y-76062200D02*
X165921428Y-76109819D01*
X165921428Y-76109819D02*
X165730952Y-76109819D01*
X165730952Y-76109819D02*
X165635714Y-76062200D01*
X165635714Y-76062200D02*
X165588095Y-76014580D01*
X165588095Y-76014580D02*
X165540476Y-75919342D01*
X165540476Y-75919342D02*
X165540476Y-75109819D01*
X164540476Y-76109819D02*
X165111904Y-76109819D01*
X164826190Y-76109819D02*
X164826190Y-75109819D01*
X164826190Y-75109819D02*
X164921428Y-75252676D01*
X164921428Y-75252676D02*
X165016666Y-75347914D01*
X165016666Y-75347914D02*
X165111904Y-75395533D01*
X156262856Y-69634819D02*
X156596189Y-69158628D01*
X156834284Y-69634819D02*
X156834284Y-68634819D01*
X156834284Y-68634819D02*
X156453332Y-68634819D01*
X156453332Y-68634819D02*
X156358094Y-68682438D01*
X156358094Y-68682438D02*
X156310475Y-68730057D01*
X156310475Y-68730057D02*
X156262856Y-68825295D01*
X156262856Y-68825295D02*
X156262856Y-68968152D01*
X156262856Y-68968152D02*
X156310475Y-69063390D01*
X156310475Y-69063390D02*
X156358094Y-69111009D01*
X156358094Y-69111009D02*
X156453332Y-69158628D01*
X156453332Y-69158628D02*
X156834284Y-69158628D01*
X155929522Y-68634819D02*
X155262856Y-68634819D01*
X155262856Y-68634819D02*
X155691427Y-69634819D01*
X156262856Y-71624819D02*
X156596189Y-71148628D01*
X156834284Y-71624819D02*
X156834284Y-70624819D01*
X156834284Y-70624819D02*
X156453332Y-70624819D01*
X156453332Y-70624819D02*
X156358094Y-70672438D01*
X156358094Y-70672438D02*
X156310475Y-70720057D01*
X156310475Y-70720057D02*
X156262856Y-70815295D01*
X156262856Y-70815295D02*
X156262856Y-70958152D01*
X156262856Y-70958152D02*
X156310475Y-71053390D01*
X156310475Y-71053390D02*
X156358094Y-71101009D01*
X156358094Y-71101009D02*
X156453332Y-71148628D01*
X156453332Y-71148628D02*
X156834284Y-71148628D01*
X155405713Y-70624819D02*
X155596189Y-70624819D01*
X155596189Y-70624819D02*
X155691427Y-70672438D01*
X155691427Y-70672438D02*
X155739046Y-70720057D01*
X155739046Y-70720057D02*
X155834284Y-70862914D01*
X155834284Y-70862914D02*
X155881903Y-71053390D01*
X155881903Y-71053390D02*
X155881903Y-71434342D01*
X155881903Y-71434342D02*
X155834284Y-71529580D01*
X155834284Y-71529580D02*
X155786665Y-71577200D01*
X155786665Y-71577200D02*
X155691427Y-71624819D01*
X155691427Y-71624819D02*
X155500951Y-71624819D01*
X155500951Y-71624819D02*
X155405713Y-71577200D01*
X155405713Y-71577200D02*
X155358094Y-71529580D01*
X155358094Y-71529580D02*
X155310475Y-71434342D01*
X155310475Y-71434342D02*
X155310475Y-71196247D01*
X155310475Y-71196247D02*
X155358094Y-71101009D01*
X155358094Y-71101009D02*
X155405713Y-71053390D01*
X155405713Y-71053390D02*
X155500951Y-71005771D01*
X155500951Y-71005771D02*
X155691427Y-71005771D01*
X155691427Y-71005771D02*
X155786665Y-71053390D01*
X155786665Y-71053390D02*
X155834284Y-71101009D01*
X155834284Y-71101009D02*
X155881903Y-71196247D01*
X156262856Y-73614819D02*
X156596189Y-73138628D01*
X156834284Y-73614819D02*
X156834284Y-72614819D01*
X156834284Y-72614819D02*
X156453332Y-72614819D01*
X156453332Y-72614819D02*
X156358094Y-72662438D01*
X156358094Y-72662438D02*
X156310475Y-72710057D01*
X156310475Y-72710057D02*
X156262856Y-72805295D01*
X156262856Y-72805295D02*
X156262856Y-72948152D01*
X156262856Y-72948152D02*
X156310475Y-73043390D01*
X156310475Y-73043390D02*
X156358094Y-73091009D01*
X156358094Y-73091009D02*
X156453332Y-73138628D01*
X156453332Y-73138628D02*
X156834284Y-73138628D01*
X155358094Y-72614819D02*
X155834284Y-72614819D01*
X155834284Y-72614819D02*
X155881903Y-73091009D01*
X155881903Y-73091009D02*
X155834284Y-73043390D01*
X155834284Y-73043390D02*
X155739046Y-72995771D01*
X155739046Y-72995771D02*
X155500951Y-72995771D01*
X155500951Y-72995771D02*
X155405713Y-73043390D01*
X155405713Y-73043390D02*
X155358094Y-73091009D01*
X155358094Y-73091009D02*
X155310475Y-73186247D01*
X155310475Y-73186247D02*
X155310475Y-73424342D01*
X155310475Y-73424342D02*
X155358094Y-73519580D01*
X155358094Y-73519580D02*
X155405713Y-73567200D01*
X155405713Y-73567200D02*
X155500951Y-73614819D01*
X155500951Y-73614819D02*
X155739046Y-73614819D01*
X155739046Y-73614819D02*
X155834284Y-73567200D01*
X155834284Y-73567200D02*
X155881903Y-73519580D01*
X157284819Y-77343333D02*
X156808628Y-77010000D01*
X157284819Y-76771905D02*
X156284819Y-76771905D01*
X156284819Y-76771905D02*
X156284819Y-77152857D01*
X156284819Y-77152857D02*
X156332438Y-77248095D01*
X156332438Y-77248095D02*
X156380057Y-77295714D01*
X156380057Y-77295714D02*
X156475295Y-77343333D01*
X156475295Y-77343333D02*
X156618152Y-77343333D01*
X156618152Y-77343333D02*
X156713390Y-77295714D01*
X156713390Y-77295714D02*
X156761009Y-77248095D01*
X156761009Y-77248095D02*
X156808628Y-77152857D01*
X156808628Y-77152857D02*
X156808628Y-76771905D01*
X156618152Y-78200476D02*
X157284819Y-78200476D01*
X156237200Y-77962381D02*
X156951485Y-77724286D01*
X156951485Y-77724286D02*
X156951485Y-78343333D01*
X155294819Y-77343333D02*
X154818628Y-77010000D01*
X155294819Y-76771905D02*
X154294819Y-76771905D01*
X154294819Y-76771905D02*
X154294819Y-77152857D01*
X154294819Y-77152857D02*
X154342438Y-77248095D01*
X154342438Y-77248095D02*
X154390057Y-77295714D01*
X154390057Y-77295714D02*
X154485295Y-77343333D01*
X154485295Y-77343333D02*
X154628152Y-77343333D01*
X154628152Y-77343333D02*
X154723390Y-77295714D01*
X154723390Y-77295714D02*
X154771009Y-77248095D01*
X154771009Y-77248095D02*
X154818628Y-77152857D01*
X154818628Y-77152857D02*
X154818628Y-76771905D01*
X154294819Y-77676667D02*
X154294819Y-78295714D01*
X154294819Y-78295714D02*
X154675771Y-77962381D01*
X154675771Y-77962381D02*
X154675771Y-78105238D01*
X154675771Y-78105238D02*
X154723390Y-78200476D01*
X154723390Y-78200476D02*
X154771009Y-78248095D01*
X154771009Y-78248095D02*
X154866247Y-78295714D01*
X154866247Y-78295714D02*
X155104342Y-78295714D01*
X155104342Y-78295714D02*
X155199580Y-78248095D01*
X155199580Y-78248095D02*
X155247200Y-78200476D01*
X155247200Y-78200476D02*
X155294819Y-78105238D01*
X155294819Y-78105238D02*
X155294819Y-77819524D01*
X155294819Y-77819524D02*
X155247200Y-77724286D01*
X155247200Y-77724286D02*
X155199580Y-77676667D01*
X153304819Y-77343333D02*
X152828628Y-77010000D01*
X153304819Y-76771905D02*
X152304819Y-76771905D01*
X152304819Y-76771905D02*
X152304819Y-77152857D01*
X152304819Y-77152857D02*
X152352438Y-77248095D01*
X152352438Y-77248095D02*
X152400057Y-77295714D01*
X152400057Y-77295714D02*
X152495295Y-77343333D01*
X152495295Y-77343333D02*
X152638152Y-77343333D01*
X152638152Y-77343333D02*
X152733390Y-77295714D01*
X152733390Y-77295714D02*
X152781009Y-77248095D01*
X152781009Y-77248095D02*
X152828628Y-77152857D01*
X152828628Y-77152857D02*
X152828628Y-76771905D01*
X152400057Y-77724286D02*
X152352438Y-77771905D01*
X152352438Y-77771905D02*
X152304819Y-77867143D01*
X152304819Y-77867143D02*
X152304819Y-78105238D01*
X152304819Y-78105238D02*
X152352438Y-78200476D01*
X152352438Y-78200476D02*
X152400057Y-78248095D01*
X152400057Y-78248095D02*
X152495295Y-78295714D01*
X152495295Y-78295714D02*
X152590533Y-78295714D01*
X152590533Y-78295714D02*
X152733390Y-78248095D01*
X152733390Y-78248095D02*
X153304819Y-77676667D01*
X153304819Y-77676667D02*
X153304819Y-78295714D01*
X151314819Y-77343333D02*
X150838628Y-77010000D01*
X151314819Y-76771905D02*
X150314819Y-76771905D01*
X150314819Y-76771905D02*
X150314819Y-77152857D01*
X150314819Y-77152857D02*
X150362438Y-77248095D01*
X150362438Y-77248095D02*
X150410057Y-77295714D01*
X150410057Y-77295714D02*
X150505295Y-77343333D01*
X150505295Y-77343333D02*
X150648152Y-77343333D01*
X150648152Y-77343333D02*
X150743390Y-77295714D01*
X150743390Y-77295714D02*
X150791009Y-77248095D01*
X150791009Y-77248095D02*
X150838628Y-77152857D01*
X150838628Y-77152857D02*
X150838628Y-76771905D01*
X151314819Y-78295714D02*
X151314819Y-77724286D01*
X151314819Y-78010000D02*
X150314819Y-78010000D01*
X150314819Y-78010000D02*
X150457676Y-77914762D01*
X150457676Y-77914762D02*
X150552914Y-77819524D01*
X150552914Y-77819524D02*
X150600533Y-77724286D01*
X171032738Y-82150057D02*
X171127976Y-82102438D01*
X171127976Y-82102438D02*
X171223214Y-82007200D01*
X171223214Y-82007200D02*
X171366071Y-81864342D01*
X171366071Y-81864342D02*
X171461309Y-81816723D01*
X171461309Y-81816723D02*
X171556547Y-81816723D01*
X171508928Y-82054819D02*
X171604166Y-82007200D01*
X171604166Y-82007200D02*
X171699404Y-81911961D01*
X171699404Y-81911961D02*
X171747023Y-81721485D01*
X171747023Y-81721485D02*
X171747023Y-81388152D01*
X171747023Y-81388152D02*
X171699404Y-81197676D01*
X171699404Y-81197676D02*
X171604166Y-81102438D01*
X171604166Y-81102438D02*
X171508928Y-81054819D01*
X171508928Y-81054819D02*
X171318452Y-81054819D01*
X171318452Y-81054819D02*
X171223214Y-81102438D01*
X171223214Y-81102438D02*
X171127976Y-81197676D01*
X171127976Y-81197676D02*
X171080357Y-81388152D01*
X171080357Y-81388152D02*
X171080357Y-81721485D01*
X171080357Y-81721485D02*
X171127976Y-81911961D01*
X171127976Y-81911961D02*
X171223214Y-82007200D01*
X171223214Y-82007200D02*
X171318452Y-82054819D01*
X171318452Y-82054819D02*
X171508928Y-82054819D01*
X170699404Y-81150057D02*
X170651785Y-81102438D01*
X170651785Y-81102438D02*
X170556547Y-81054819D01*
X170556547Y-81054819D02*
X170318452Y-81054819D01*
X170318452Y-81054819D02*
X170223214Y-81102438D01*
X170223214Y-81102438D02*
X170175595Y-81150057D01*
X170175595Y-81150057D02*
X170127976Y-81245295D01*
X170127976Y-81245295D02*
X170127976Y-81340533D01*
X170127976Y-81340533D02*
X170175595Y-81483390D01*
X170175595Y-81483390D02*
X170747023Y-82054819D01*
X170747023Y-82054819D02*
X170127976Y-82054819D01*
X171032738Y-77700057D02*
X171127976Y-77652438D01*
X171127976Y-77652438D02*
X171223214Y-77557200D01*
X171223214Y-77557200D02*
X171366071Y-77414342D01*
X171366071Y-77414342D02*
X171461309Y-77366723D01*
X171461309Y-77366723D02*
X171556547Y-77366723D01*
X171508928Y-77604819D02*
X171604166Y-77557200D01*
X171604166Y-77557200D02*
X171699404Y-77461961D01*
X171699404Y-77461961D02*
X171747023Y-77271485D01*
X171747023Y-77271485D02*
X171747023Y-76938152D01*
X171747023Y-76938152D02*
X171699404Y-76747676D01*
X171699404Y-76747676D02*
X171604166Y-76652438D01*
X171604166Y-76652438D02*
X171508928Y-76604819D01*
X171508928Y-76604819D02*
X171318452Y-76604819D01*
X171318452Y-76604819D02*
X171223214Y-76652438D01*
X171223214Y-76652438D02*
X171127976Y-76747676D01*
X171127976Y-76747676D02*
X171080357Y-76938152D01*
X171080357Y-76938152D02*
X171080357Y-77271485D01*
X171080357Y-77271485D02*
X171127976Y-77461961D01*
X171127976Y-77461961D02*
X171223214Y-77557200D01*
X171223214Y-77557200D02*
X171318452Y-77604819D01*
X171318452Y-77604819D02*
X171508928Y-77604819D01*
X170127976Y-77604819D02*
X170699404Y-77604819D01*
X170413690Y-77604819D02*
X170413690Y-76604819D01*
X170413690Y-76604819D02*
X170508928Y-76747676D01*
X170508928Y-76747676D02*
X170604166Y-76842914D01*
X170604166Y-76842914D02*
X170699404Y-76890533D01*
X153669523Y-75494819D02*
X153669523Y-76209104D01*
X153669523Y-76209104D02*
X153717142Y-76351961D01*
X153717142Y-76351961D02*
X153812380Y-76447200D01*
X153812380Y-76447200D02*
X153955237Y-76494819D01*
X153955237Y-76494819D02*
X154050475Y-76494819D01*
X153193332Y-76494819D02*
X153193332Y-75494819D01*
X153193332Y-75494819D02*
X152812380Y-75494819D01*
X152812380Y-75494819D02*
X152717142Y-75542438D01*
X152717142Y-75542438D02*
X152669523Y-75590057D01*
X152669523Y-75590057D02*
X152621904Y-75685295D01*
X152621904Y-75685295D02*
X152621904Y-75828152D01*
X152621904Y-75828152D02*
X152669523Y-75923390D01*
X152669523Y-75923390D02*
X152717142Y-75971009D01*
X152717142Y-75971009D02*
X152812380Y-76018628D01*
X152812380Y-76018628D02*
X153193332Y-76018628D01*
X152288570Y-75494819D02*
X151669523Y-75494819D01*
X151669523Y-75494819D02*
X152002856Y-75875771D01*
X152002856Y-75875771D02*
X151859999Y-75875771D01*
X151859999Y-75875771D02*
X151764761Y-75923390D01*
X151764761Y-75923390D02*
X151717142Y-75971009D01*
X151717142Y-75971009D02*
X151669523Y-76066247D01*
X151669523Y-76066247D02*
X151669523Y-76304342D01*
X151669523Y-76304342D02*
X151717142Y-76399580D01*
X151717142Y-76399580D02*
X151764761Y-76447200D01*
X151764761Y-76447200D02*
X151859999Y-76494819D01*
X151859999Y-76494819D02*
X152145713Y-76494819D01*
X152145713Y-76494819D02*
X152240951Y-76447200D01*
X152240951Y-76447200D02*
X152288570Y-76399580D01*
X153519523Y-72244819D02*
X153519523Y-72959104D01*
X153519523Y-72959104D02*
X153567142Y-73101961D01*
X153567142Y-73101961D02*
X153662380Y-73197200D01*
X153662380Y-73197200D02*
X153805237Y-73244819D01*
X153805237Y-73244819D02*
X153900475Y-73244819D01*
X153043332Y-73244819D02*
X153043332Y-72244819D01*
X153043332Y-72244819D02*
X152662380Y-72244819D01*
X152662380Y-72244819D02*
X152567142Y-72292438D01*
X152567142Y-72292438D02*
X152519523Y-72340057D01*
X152519523Y-72340057D02*
X152471904Y-72435295D01*
X152471904Y-72435295D02*
X152471904Y-72578152D01*
X152471904Y-72578152D02*
X152519523Y-72673390D01*
X152519523Y-72673390D02*
X152567142Y-72721009D01*
X152567142Y-72721009D02*
X152662380Y-72768628D01*
X152662380Y-72768628D02*
X153043332Y-72768628D01*
X152090951Y-72340057D02*
X152043332Y-72292438D01*
X152043332Y-72292438D02*
X151948094Y-72244819D01*
X151948094Y-72244819D02*
X151709999Y-72244819D01*
X151709999Y-72244819D02*
X151614761Y-72292438D01*
X151614761Y-72292438D02*
X151567142Y-72340057D01*
X151567142Y-72340057D02*
X151519523Y-72435295D01*
X151519523Y-72435295D02*
X151519523Y-72530533D01*
X151519523Y-72530533D02*
X151567142Y-72673390D01*
X151567142Y-72673390D02*
X152138570Y-73244819D01*
X152138570Y-73244819D02*
X151519523Y-73244819D01*
X152819523Y-68494819D02*
X152819523Y-69209104D01*
X152819523Y-69209104D02*
X152867142Y-69351961D01*
X152867142Y-69351961D02*
X152962380Y-69447200D01*
X152962380Y-69447200D02*
X153105237Y-69494819D01*
X153105237Y-69494819D02*
X153200475Y-69494819D01*
X152343332Y-69494819D02*
X152343332Y-68494819D01*
X152343332Y-68494819D02*
X151962380Y-68494819D01*
X151962380Y-68494819D02*
X151867142Y-68542438D01*
X151867142Y-68542438D02*
X151819523Y-68590057D01*
X151819523Y-68590057D02*
X151771904Y-68685295D01*
X151771904Y-68685295D02*
X151771904Y-68828152D01*
X151771904Y-68828152D02*
X151819523Y-68923390D01*
X151819523Y-68923390D02*
X151867142Y-68971009D01*
X151867142Y-68971009D02*
X151962380Y-69018628D01*
X151962380Y-69018628D02*
X152343332Y-69018628D01*
X150819523Y-69494819D02*
X151390951Y-69494819D01*
X151105237Y-69494819D02*
X151105237Y-68494819D01*
X151105237Y-68494819D02*
X151200475Y-68637676D01*
X151200475Y-68637676D02*
X151295713Y-68732914D01*
X151295713Y-68732914D02*
X151390951Y-68780533D01*
X150304819Y-61666666D02*
X151019104Y-61666666D01*
X151019104Y-61666666D02*
X151161961Y-61619047D01*
X151161961Y-61619047D02*
X151257200Y-61523809D01*
X151257200Y-61523809D02*
X151304819Y-61380952D01*
X151304819Y-61380952D02*
X151304819Y-61285714D01*
X150638152Y-62571428D02*
X151304819Y-62571428D01*
X150257200Y-62333333D02*
X150971485Y-62095238D01*
X150971485Y-62095238D02*
X150971485Y-62714285D01*
X171544166Y-86409580D02*
X171591785Y-86457200D01*
X171591785Y-86457200D02*
X171734642Y-86504819D01*
X171734642Y-86504819D02*
X171829880Y-86504819D01*
X171829880Y-86504819D02*
X171972737Y-86457200D01*
X171972737Y-86457200D02*
X172067975Y-86361961D01*
X172067975Y-86361961D02*
X172115594Y-86266723D01*
X172115594Y-86266723D02*
X172163213Y-86076247D01*
X172163213Y-86076247D02*
X172163213Y-85933390D01*
X172163213Y-85933390D02*
X172115594Y-85742914D01*
X172115594Y-85742914D02*
X172067975Y-85647676D01*
X172067975Y-85647676D02*
X171972737Y-85552438D01*
X171972737Y-85552438D02*
X171829880Y-85504819D01*
X171829880Y-85504819D02*
X171734642Y-85504819D01*
X171734642Y-85504819D02*
X171591785Y-85552438D01*
X171591785Y-85552438D02*
X171544166Y-85600057D01*
X170591785Y-86504819D02*
X171163213Y-86504819D01*
X170877499Y-86504819D02*
X170877499Y-85504819D01*
X170877499Y-85504819D02*
X170972737Y-85647676D01*
X170972737Y-85647676D02*
X171067975Y-85742914D01*
X171067975Y-85742914D02*
X171163213Y-85790533D01*
D11*
%TO.C,TP8*%
X163950000Y-137000000D02*
G75*
G03*
X163950000Y-137000000I-950000J0D01*
G01*
%TO.C,TP7*%
X147950000Y-137000000D02*
G75*
G03*
X147950000Y-137000000I-950000J0D01*
G01*
%TO.C,TP6*%
X131950000Y-137000000D02*
G75*
G03*
X131950000Y-137000000I-950000J0D01*
G01*
%TO.C,TP5*%
X115950000Y-137000000D02*
G75*
G03*
X115950000Y-137000000I-950000J0D01*
G01*
%TO.C,TP4*%
X101950000Y-130000000D02*
G75*
G03*
X101950000Y-130000000I-950000J0D01*
G01*
%TO.C,TP3*%
X101950000Y-113000000D02*
G75*
G03*
X101950000Y-113000000I-950000J0D01*
G01*
%TO.C,TP2*%
X101950000Y-97000000D02*
G75*
G03*
X101950000Y-97000000I-950000J0D01*
G01*
%TO.C,TP1*%
X101950000Y-79000000D02*
G75*
G03*
X101950000Y-79000000I-950000J0D01*
G01*
%TO.C,J5*%
X141610000Y-62290000D02*
X141610000Y-66310000D01*
X128890000Y-62290000D02*
X141610000Y-62290000D01*
X128890000Y-64810000D02*
X129890000Y-64810000D01*
X129390000Y-62790000D02*
X129390000Y-64000000D01*
X141610000Y-64810000D02*
X140610000Y-64810000D01*
X141110000Y-64000000D02*
X141110000Y-62790000D01*
X129890000Y-64810000D02*
X129890000Y-66310000D01*
X129390000Y-64000000D02*
X128890000Y-64000000D01*
X141110000Y-62790000D02*
X129390000Y-62790000D01*
X140610000Y-64810000D02*
X140610000Y-66310000D01*
X128890000Y-66310000D02*
X128890000Y-62290000D01*
X141610000Y-64000000D02*
X141110000Y-64000000D01*
X141910000Y-64110000D02*
X141910000Y-66610000D01*
X141610000Y-66310000D02*
X128890000Y-66310000D01*
X141910000Y-66610000D02*
X139410000Y-66610000D01*
%TO.C,J3*%
X110390000Y-65710000D02*
X110390000Y-61690000D01*
X123110000Y-65710000D02*
X110390000Y-65710000D01*
X123110000Y-63190000D02*
X122110000Y-63190000D01*
X122610000Y-65210000D02*
X122610000Y-64000000D01*
X110390000Y-63190000D02*
X111390000Y-63190000D01*
X110890000Y-64000000D02*
X110890000Y-65210000D01*
X122110000Y-63190000D02*
X122110000Y-61690000D01*
X122610000Y-64000000D02*
X123110000Y-64000000D01*
X110890000Y-65210000D02*
X122610000Y-65210000D01*
X111390000Y-63190000D02*
X111390000Y-61690000D01*
X123110000Y-61690000D02*
X123110000Y-65710000D01*
X110390000Y-64000000D02*
X110890000Y-64000000D01*
X110090000Y-63890000D02*
X110090000Y-61390000D01*
X110390000Y-61690000D02*
X123110000Y-61690000D01*
X110090000Y-61390000D02*
X112590000Y-61390000D01*
%TO.C,U1*%
X169210000Y-64295000D02*
X169210000Y-64550000D01*
X165350000Y-64295000D02*
X169210000Y-64295000D01*
X161490000Y-64295000D02*
X161490000Y-64550000D01*
X161490000Y-74560000D02*
X159675000Y-74560000D01*
X165350000Y-64295000D02*
X161490000Y-64295000D01*
X169210000Y-74815000D02*
X169210000Y-74560000D01*
X161490000Y-74815000D02*
X161490000Y-74560000D01*
X165350000Y-74815000D02*
X169210000Y-74815000D01*
X165350000Y-74815000D02*
X161490000Y-74815000D01*
%TO.C,R7*%
X155942549Y-68390000D02*
X156249831Y-68390000D01*
X155942549Y-67630000D02*
X156249831Y-67630000D01*
%TO.C,R6*%
X155942549Y-70380000D02*
X156249831Y-70380000D01*
X155942549Y-69620000D02*
X156249831Y-69620000D01*
%TO.C,R5*%
X155942549Y-72370000D02*
X156249831Y-72370000D01*
X155942549Y-71610000D02*
X156249831Y-71610000D01*
%TO.C,R4*%
X157620000Y-77356359D02*
X157620000Y-77663641D01*
X158380000Y-77356359D02*
X158380000Y-77663641D01*
%TO.C,R3*%
X155630000Y-77356359D02*
X155630000Y-77663641D01*
X156390000Y-77356359D02*
X156390000Y-77663641D01*
%TO.C,R2*%
X153640000Y-77356359D02*
X153640000Y-77663641D01*
X154400000Y-77356359D02*
X154400000Y-77663641D01*
%TO.C,R1*%
X151650000Y-77356359D02*
X151650000Y-77663641D01*
X152410000Y-77356359D02*
X152410000Y-77663641D01*
%TO.C,Q2*%
X170937500Y-82440000D02*
X170287500Y-82440000D01*
X170937500Y-85560000D02*
X170287500Y-85560000D01*
X170937500Y-82440000D02*
X172612500Y-82440000D01*
X170937500Y-85560000D02*
X171587500Y-85560000D01*
%TO.C,Q1*%
X170937500Y-77990000D02*
X170287500Y-77990000D01*
X170937500Y-81110000D02*
X170287500Y-81110000D01*
X170937500Y-77990000D02*
X172612500Y-77990000D01*
X170937500Y-81110000D02*
X171587500Y-81110000D01*
%TO.C,JP3*%
X152136190Y-75240000D02*
X153536190Y-75240000D01*
X153536190Y-73240000D02*
X152136190Y-73240000D01*
X154236190Y-74540000D02*
X154236190Y-73940000D01*
X151436190Y-73940000D02*
X151436190Y-74540000D01*
X153536190Y-75240000D02*
G75*
G03*
X154236190Y-74540000I0J700000D01*
G01*
X151436190Y-74540000D02*
G75*
G03*
X152136190Y-75240000I699999J-1D01*
G01*
X152136190Y-73240000D02*
G75*
G03*
X151436190Y-73940000I-1J-699999D01*
G01*
X154236190Y-73940000D02*
G75*
G03*
X153536190Y-73240000I-700000J0D01*
G01*
%TO.C,JP2*%
X151986190Y-71990000D02*
X153386190Y-71990000D01*
X153386190Y-69990000D02*
X151986190Y-69990000D01*
X154086190Y-71290000D02*
X154086190Y-70690000D01*
X151286190Y-70690000D02*
X151286190Y-71290000D01*
X153386190Y-71990000D02*
G75*
G03*
X154086190Y-71290000I0J700000D01*
G01*
X151286190Y-71290000D02*
G75*
G03*
X151986190Y-71990000I699999J-1D01*
G01*
X151986190Y-69990000D02*
G75*
G03*
X151286190Y-70690000I-1J-699999D01*
G01*
X154086190Y-70690000D02*
G75*
G03*
X153386190Y-69990000I-700000J0D01*
G01*
%TO.C,JP1*%
X151286190Y-68240000D02*
X152686190Y-68240000D01*
X152686190Y-66240000D02*
X151286190Y-66240000D01*
X153386190Y-67540000D02*
X153386190Y-66940000D01*
X150586190Y-66940000D02*
X150586190Y-67540000D01*
X152686190Y-68240000D02*
G75*
G03*
X153386190Y-67540000I0J700000D01*
G01*
X150586190Y-67540000D02*
G75*
G03*
X151286190Y-68240000I699999J-1D01*
G01*
X151286190Y-66240000D02*
G75*
G03*
X150586190Y-66940000I-1J-699999D01*
G01*
X153386190Y-66940000D02*
G75*
G03*
X152686190Y-66240000I-700000J0D01*
G01*
%TO.C,J4*%
X154450000Y-63330000D02*
X162130000Y-63330000D01*
X153180000Y-60670000D02*
X151850000Y-60670000D01*
X162130000Y-60670000D02*
X162130000Y-63330000D01*
X154450000Y-60670000D02*
X154450000Y-63330000D01*
X151850000Y-60670000D02*
X151850000Y-62000000D01*
X154450000Y-60670000D02*
X162130000Y-60670000D01*
%TO.C,C1*%
X171518080Y-87990000D02*
X171236920Y-87990000D01*
X171518080Y-86970000D02*
X171236920Y-86970000D01*
%TD*%
M02*
